<svg width="52" height="52" viewBox="0 0 52 52" fill="none" xmlns="http://www.w3.org/2000/svg">
<g clip-path="url(#clip0_1931_7440)">
<path d="M24.4933 5.95701C24.4933 5.69878 24.3455 5.45112 24.0826 5.26852C23.8197 5.08592 23.463 4.98334 23.0912 4.98334C22.7193 4.98334 22.3627 5.08592 22.0998 5.26852C21.8368 5.45112 21.6891 5.69878 21.6891 5.95701V9.85171C21.6891 10.1099 21.8368 10.3576 22.0998 10.5402C22.3627 10.7228 22.7193 10.8254 23.0912 10.8254C23.463 10.8254 23.8197 10.7228 24.0826 10.5402C24.3455 10.3576 24.4933 10.1099 24.4933 9.85171V5.95701Z" fill="url(#paint0_linear_1931_7440)"/>
<path d="M39.0806 10.1878C39.3164 10.4418 39.4489 10.7862 39.4489 11.1453C39.4489 11.5044 39.3164 11.8488 39.0806 12.1028L36.5615 14.8128C36.4462 14.9459 36.3071 15.0527 36.1526 15.1268C35.9981 15.2008 35.8313 15.2407 35.6622 15.2439C35.4931 15.2471 35.3251 15.2136 35.1683 15.1455C35.0114 15.0773 34.869 14.9759 34.7494 14.8472C34.6298 14.7185 34.5355 14.5653 34.4721 14.3966C34.4088 14.2278 34.3777 14.0471 34.3806 13.8652C34.3836 13.6832 34.4206 13.5038 34.4895 13.3376C34.5583 13.1714 34.6576 13.0218 34.7813 12.8978L37.3004 10.1878C37.5366 9.93403 37.8567 9.7915 38.1905 9.7915C38.5243 9.7915 38.8444 9.93403 39.0806 10.1878ZM8.85165 10.1878C8.61289 9.94843 8.29708 9.81813 7.97078 9.82432C7.64447 9.83052 7.33314 9.97272 7.10237 10.221C6.8716 10.4692 6.73941 10.8042 6.73366 11.1552C6.7279 11.5062 6.84902 11.846 7.07151 12.1028L9.59058 14.8128C9.82935 15.0522 10.1451 15.1825 10.4715 15.1763C10.7978 15.1701 11.1091 15.0279 11.3399 14.7796C11.5706 14.5314 11.7028 14.1964 11.7086 13.8454C11.7143 13.4944 11.5932 13.1546 11.3707 12.8978L8.85165 10.1878Z" fill="url(#paint1_linear_1931_7440)"/>
<path d="M22.9907 12.9951C31.136 12.9951 37.739 19.785 37.739 28.1609V39.2382C37.739 39.6417 37.5831 40.0287 37.3056 40.314C37.0282 40.5993 36.6519 40.7596 36.2595 40.7596H9.72181C9.32944 40.7596 8.95313 40.5993 8.67568 40.314C8.39823 40.0287 8.24236 39.6417 8.24236 39.2382V28.1609C8.24236 19.785 14.8453 12.9951 22.9907 12.9951ZM8.19613 43.8023H37.7852C38.1776 43.8023 38.5539 43.9625 38.8313 44.2479C39.1088 44.5332 39.2646 44.9201 39.2646 45.3236V46.4646C39.2646 46.5655 39.2257 46.6622 39.1563 46.7335C39.087 46.8049 38.9929 46.8449 38.8948 46.8449H7.08654C6.98844 46.8449 6.89437 46.8049 6.825 46.7335C6.75564 46.6622 6.71667 46.5655 6.71667 46.4646V45.3236C6.71667 44.9201 6.87255 44.5332 7.15 44.2479C7.42745 43.9625 7.80375 43.8023 8.19613 43.8023ZM15.0386 28.7315V40.7596H17.9975V28.7315H15.0386Z" fill="url(#paint2_linear_1931_7440)"/>
<g filter="url(#filter0_f_1931_7440)">
<path d="M24.4933 5.95701C24.4933 5.69878 24.3455 5.45112 24.0826 5.26852C23.8197 5.08592 23.463 4.98334 23.0912 4.98334C22.7193 4.98334 22.3627 5.08592 22.0998 5.26852C21.8368 5.45112 21.6891 5.69878 21.6891 5.95701V9.85171C21.6891 10.1099 21.8368 10.3576 22.0998 10.5402C22.3627 10.7228 22.7193 10.8254 23.0912 10.8254C23.463 10.8254 23.8197 10.7228 24.0826 10.5402C24.3455 10.3576 24.4933 10.1099 24.4933 9.85171V5.95701Z" fill="url(#paint3_linear_1931_7440)"/>
<path d="M39.0806 10.1878C39.3164 10.4418 39.4489 10.7862 39.4489 11.1453C39.4489 11.5044 39.3164 11.8488 39.0806 12.1028L36.5615 14.8128C36.4462 14.9459 36.3071 15.0527 36.1526 15.1268C35.9981 15.2008 35.8313 15.2407 35.6622 15.2439C35.4931 15.2471 35.3251 15.2136 35.1683 15.1455C35.0114 15.0773 34.869 14.9759 34.7494 14.8472C34.6298 14.7185 34.5355 14.5653 34.4721 14.3966C34.4088 14.2278 34.3777 14.0471 34.3806 13.8652C34.3836 13.6832 34.4206 13.5038 34.4895 13.3376C34.5583 13.1714 34.6576 13.0218 34.7813 12.8978L37.3004 10.1878C37.5366 9.93403 37.8567 9.7915 38.1905 9.7915C38.5243 9.7915 38.8444 9.93403 39.0806 10.1878ZM8.85165 10.1878C8.61289 9.94843 8.29708 9.81813 7.97078 9.82432C7.64447 9.83052 7.33314 9.97272 7.10237 10.221C6.8716 10.4692 6.73941 10.8042 6.73366 11.1552C6.7279 11.5062 6.84902 11.846 7.07151 12.1028L9.59058 14.8128C9.82935 15.0522 10.1451 15.1825 10.4715 15.1763C10.7978 15.1701 11.1091 15.0279 11.3399 14.7796C11.5706 14.5314 11.7028 14.1964 11.7086 13.8454C11.7143 13.4944 11.5932 13.1546 11.3707 12.8978L8.85165 10.1878Z" fill="url(#paint4_linear_1931_7440)"/>
<path d="M22.9907 12.9951C31.136 12.9951 37.739 19.785 37.739 28.1609V39.2382C37.739 39.6417 37.5831 40.0287 37.3056 40.314C37.0282 40.5993 36.6519 40.7596 36.2595 40.7596H9.72181C9.32944 40.7596 8.95313 40.5993 8.67568 40.314C8.39823 40.0287 8.24236 39.6417 8.24236 39.2382V28.1609C8.24236 19.785 14.8453 12.9951 22.9907 12.9951ZM8.19613 43.8023H37.7852C38.1776 43.8023 38.5539 43.9625 38.8313 44.2479C39.1088 44.5332 39.2646 44.9201 39.2646 45.3236V46.4646C39.2646 46.5655 39.2257 46.6622 39.1563 46.7335C39.087 46.8049 38.9929 46.8449 38.8948 46.8449H7.08654C6.98844 46.8449 6.89437 46.8049 6.825 46.7335C6.75564 46.6622 6.71667 46.5655 6.71667 46.4646V45.3236C6.71667 44.9201 6.87255 44.5332 7.15 44.2479C7.42745 43.9625 7.80375 43.8023 8.19613 43.8023ZM15.0386 28.7315V40.7596H17.9975V28.7315H15.0386Z" fill="url(#paint5_linear_1931_7440)"/>
</g>
<path d="M26.823 24.2432L26.8231 24.243C26.8644 24.1843 26.9708 24.0828 27.2124 23.9427C27.4467 23.8068 27.7694 23.6562 28.1984 23.4821C29.057 23.1335 30.2757 22.7163 31.9285 22.1507C31.9286 22.1507 31.9288 22.1506 31.929 22.1506L32.5557 21.9375L32.5567 21.9372C34.3044 21.3389 35.0713 21.0833 35.8583 21.0833C36.6454 21.0833 37.4122 21.3389 39.16 21.9372L39.1602 21.9373L39.7878 22.1517C39.7878 22.1517 39.7879 22.1517 39.7879 22.1517C41.4409 22.7168 42.6597 23.1338 43.5184 23.4822C43.9473 23.6563 44.27 23.8068 44.5043 23.9427C44.7459 24.0828 44.8523 24.1843 44.8935 24.243L44.8937 24.2432C44.9366 24.3042 44.9976 24.4417 45.0511 24.7187C45.103 24.9876 45.1403 25.3448 45.1657 25.81C45.2165 26.7414 45.2167 28.037 45.2167 29.7929V31.5151C45.2167 37.3762 40.8199 40.2428 37.9597 41.4908L37.9597 41.4908C37.5575 41.6664 37.2988 41.7782 37.0078 41.8528C36.724 41.9255 36.3905 41.9666 35.8583 41.9666C35.3267 41.9666 34.9933 41.9255 34.7092 41.8527C34.418 41.7782 34.1591 41.6663 33.757 41.4908L33.7568 41.4908C30.8969 40.2439 26.5 37.3751 26.5 31.5151V29.7929C26.5 28.0375 26.5002 26.742 26.551 25.8104C26.5764 25.3452 26.6137 24.9878 26.6656 24.7188C26.7191 24.4417 26.7801 24.3042 26.823 24.2432Z" fill="url(#paint6_linear_1931_7440)" stroke="url(#paint7_linear_1931_7440)"/>
</g>
<defs>
<filter id="filter0_f_1931_7440" x="-3.28333" y="-5.01666" width="52.7322" height="61.8616" filterUnits="userSpaceOnUse" color-interpolation-filters="sRGB">
<feFlood flood-opacity="0" result="BackgroundImageFix"/>
<feBlend mode="normal" in="SourceGraphic" in2="BackgroundImageFix" result="shape"/>
<feGaussianBlur stdDeviation="5" result="effect1_foregroundBlur_1931_7440"/>
</filter>
<linearGradient id="paint0_linear_1931_7440" x1="21.6891" y1="4.99765" x2="25.4826" y2="6.52112" gradientUnits="userSpaceOnUse">
<stop stop-color="#60A5FA"/>
<stop offset="0.0001" stop-color="#2DD4BF"/>
<stop offset="1" stop-color="#3B82F6"/>
</linearGradient>
<linearGradient id="paint1_linear_1931_7440" x1="6.73346" y1="9.80486" x2="8.69505" y2="19.6521" gradientUnits="userSpaceOnUse">
<stop stop-color="#60A5FA"/>
<stop offset="0.0001" stop-color="#2DD4BF"/>
<stop offset="1" stop-color="#3B82F6"/>
</linearGradient>
<linearGradient id="paint2_linear_1931_7440" x1="6.71668" y1="13.078" x2="37.7584" y2="38.0508" gradientUnits="userSpaceOnUse">
<stop stop-color="#60A5FA"/>
<stop offset="0.0001" stop-color="#2DD4BF"/>
<stop offset="1" stop-color="#3B82F6"/>
</linearGradient>
<linearGradient id="paint3_linear_1931_7440" x1="21.6891" y1="4.99765" x2="25.4826" y2="6.52112" gradientUnits="userSpaceOnUse">
<stop stop-color="#60A5FA"/>
<stop offset="0.0001" stop-color="#2DD4BF"/>
<stop offset="1" stop-color="#3B82F6"/>
</linearGradient>
<linearGradient id="paint4_linear_1931_7440" x1="6.73346" y1="9.80486" x2="8.69505" y2="19.6521" gradientUnits="userSpaceOnUse">
<stop stop-color="#60A5FA"/>
<stop offset="0.0001" stop-color="#2DD4BF"/>
<stop offset="1" stop-color="#3B82F6"/>
</linearGradient>
<linearGradient id="paint5_linear_1931_7440" x1="6.71668" y1="13.078" x2="37.7584" y2="38.0508" gradientUnits="userSpaceOnUse">
<stop stop-color="#60A5FA"/>
<stop offset="0.0001" stop-color="#2DD4BF"/>
<stop offset="1" stop-color="#3B82F6"/>
</linearGradient>
<linearGradient id="paint6_linear_1931_7440" x1="43.2447" y1="21.9613" x2="27.3068" y2="43.4561" gradientUnits="userSpaceOnUse">
<stop stop-color="white" stop-opacity="0.48"/>
<stop offset="1" stop-color="white" stop-opacity="0.2"/>
</linearGradient>
<linearGradient id="paint7_linear_1931_7440" x1="35.8583" y1="20.5833" x2="35.8583" y2="42.4666" gradientUnits="userSpaceOnUse">
<stop stop-color="white" stop-opacity="0"/>
<stop offset="1" stop-color="white"/>
</linearGradient>
<clipPath id="clip0_1931_7440">
<rect width="52" height="52" fill="white"/>
</clipPath>
</defs>
</svg>
