<svg width="52" height="52" viewBox="0 0 52 52" fill="none" xmlns="http://www.w3.org/2000/svg">
<g clip-path="url(#clip0_1931_7430)">
<path d="M19.8628 7.58331H10.1884C9.44001 7.58331 8.7223 7.8806 8.19313 8.40977C7.66395 8.93894 7.36667 9.65666 7.36667 10.405V20.0794C7.36667 20.45 7.43965 20.8169 7.58146 21.1593C7.72326 21.5016 7.93111 21.8127 8.19313 22.0747C8.45515 22.3367 8.76621 22.5445 9.10855 22.6864C9.4509 22.8282 9.81782 22.9011 10.1884 22.9011H19.8628C20.2333 22.9011 20.6003 22.8282 20.9426 22.6864C21.285 22.5445 21.596 22.3367 21.858 22.0747C22.1201 21.8127 22.3279 21.5016 22.4697 21.1593C22.6115 20.8169 22.6845 20.45 22.6845 20.0794V10.405C22.6845 10.0345 22.6115 9.66754 22.4697 9.3252C22.3279 8.98285 22.1201 8.67179 21.858 8.40977C21.596 8.14775 21.285 7.93991 20.9426 7.7981C20.6003 7.6563 20.2333 7.58331 19.8628 7.58331ZM39.2116 7.58331H29.5372C28.7888 7.58331 28.0711 7.8806 27.542 8.40977C27.0128 8.93894 26.7155 9.65666 26.7155 10.405V20.0794C26.7155 20.45 26.7885 20.8169 26.9303 21.1593C27.0721 21.5016 27.2799 21.8127 27.542 22.0747C27.804 22.3367 28.115 22.5445 28.4574 22.6864C28.7997 22.8282 29.1667 22.9011 29.5372 22.9011H39.2116C39.5822 22.9011 39.9491 22.8282 40.2915 22.6864C40.6338 22.5445 40.9449 22.3367 41.2069 22.0747C41.4689 21.8127 41.6767 21.5016 41.8185 21.1593C41.9603 20.8169 42.0333 20.45 42.0333 20.0794V10.405C42.0333 9.65666 41.736 8.93894 41.2069 8.40977C40.6777 7.8806 39.96 7.58331 39.2116 7.58331ZM19.8628 26.9321H10.1884C9.44001 26.9321 8.7223 27.2294 8.19313 27.7586C7.66395 28.2878 7.36667 29.0055 7.36667 29.7539V39.4283C7.36667 40.1766 7.66395 40.8943 8.19313 41.4235C8.7223 41.9527 9.44001 42.25 10.1884 42.25H19.8628C20.2333 42.25 20.6003 42.177 20.9426 42.0352C21.285 41.8934 21.596 41.6855 21.858 41.4235C22.1201 41.1615 22.3279 40.8504 22.4697 40.5081C22.6115 40.1657 22.6845 39.7988 22.6845 39.4283V29.7539C22.6845 29.3833 22.6115 29.0164 22.4697 28.674C22.3279 28.3317 22.1201 28.0206 21.858 27.7586C21.596 27.4966 21.285 27.2887 20.9426 27.1469C20.6003 27.0051 20.2333 26.9321 19.8628 26.9321Z" fill="url(#paint0_linear_1931_7430)"/>
<g filter="url(#filter0_f_1931_7430)">
<path d="M19.8628 7.58331H10.1884C9.44001 7.58331 8.7223 7.8806 8.19313 8.40977C7.66395 8.93894 7.36667 9.65666 7.36667 10.405V20.0794C7.36667 20.45 7.43965 20.8169 7.58146 21.1593C7.72326 21.5016 7.93111 21.8127 8.19313 22.0747C8.45515 22.3367 8.76621 22.5445 9.10855 22.6864C9.4509 22.8282 9.81782 22.9011 10.1884 22.9011H19.8628C20.2333 22.9011 20.6003 22.8282 20.9426 22.6864C21.285 22.5445 21.596 22.3367 21.858 22.0747C22.1201 21.8127 22.3279 21.5016 22.4697 21.1593C22.6115 20.8169 22.6845 20.45 22.6845 20.0794V10.405C22.6845 10.0345 22.6115 9.66754 22.4697 9.3252C22.3279 8.98285 22.1201 8.67179 21.858 8.40977C21.596 8.14775 21.285 7.93991 20.9426 7.7981C20.6003 7.6563 20.2333 7.58331 19.8628 7.58331ZM39.2116 7.58331H29.5372C28.7888 7.58331 28.0711 7.8806 27.542 8.40977C27.0128 8.93894 26.7155 9.65666 26.7155 10.405V20.0794C26.7155 20.45 26.7885 20.8169 26.9303 21.1593C27.0721 21.5016 27.2799 21.8127 27.542 22.0747C27.804 22.3367 28.115 22.5445 28.4574 22.6864C28.7997 22.8282 29.1667 22.9011 29.5372 22.9011H39.2116C39.5822 22.9011 39.9491 22.8282 40.2915 22.6864C40.6338 22.5445 40.9449 22.3367 41.2069 22.0747C41.4689 21.8127 41.6767 21.5016 41.8185 21.1593C41.9603 20.8169 42.0333 20.45 42.0333 20.0794V10.405C42.0333 9.65666 41.736 8.93894 41.2069 8.40977C40.6777 7.8806 39.96 7.58331 39.2116 7.58331ZM19.8628 26.9321H10.1884C9.44001 26.9321 8.7223 27.2294 8.19313 27.7586C7.66395 28.2878 7.36667 29.0055 7.36667 29.7539V39.4283C7.36667 40.1766 7.66395 40.8943 8.19313 41.4235C8.7223 41.9527 9.44001 42.25 10.1884 42.25H19.8628C20.2333 42.25 20.6003 42.177 20.9426 42.0352C21.285 41.8934 21.596 41.6855 21.858 41.4235C22.1201 41.1615 22.3279 40.8504 22.4697 40.5081C22.6115 40.1657 22.6845 39.7988 22.6845 39.4283V29.7539C22.6845 29.3833 22.6115 29.0164 22.4697 28.674C22.3279 28.3317 22.1201 28.0206 21.858 27.7586C21.596 27.4966 21.285 27.2887 20.9426 27.1469C20.6003 27.0051 20.2333 26.9321 19.8628 26.9321Z" fill="url(#paint1_linear_1931_7430)"/>
</g>
<path d="M41.5619 40.4322L41.2658 40.7847L41.5927 41.1089L47.1222 46.5915C47.1901 46.6625 47.2269 46.756 47.2261 46.8523C47.2252 46.9496 47.1859 47.0436 47.1151 47.1138C47.0442 47.1841 46.9475 47.2247 46.8454 47.2256C46.7446 47.2264 46.6481 47.1884 46.5763 47.1208L41.0468 41.6382L40.7254 41.3195L40.3763 41.6077C38.5494 43.1166 36.2054 43.8695 33.8318 43.7089C31.4583 43.5482 29.2395 42.4865 27.6367 40.7458C26.034 39.0053 25.1704 36.72 25.2244 34.3654C25.2783 32.0108 26.2458 29.7666 27.9266 28.0999C29.6077 26.4331 31.8729 25.4724 34.2514 25.4188C36.6299 25.3652 38.9369 26.223 40.6927 27.8124C42.4483 29.4018 43.5176 31.6002 43.6793 33.9499C43.8411 36.2997 43.0831 38.6214 41.5619 40.4322Z" fill="url(#paint2_linear_1931_7430)" stroke="url(#paint3_linear_1931_7430)"/>
</g>
<defs>
<filter id="filter0_f_1931_7430" x="-2.63333" y="-2.41669" width="54.6667" height="54.6667" filterUnits="userSpaceOnUse" color-interpolation-filters="sRGB">
<feFlood flood-opacity="0" result="BackgroundImageFix"/>
<feBlend mode="normal" in="SourceGraphic" in2="BackgroundImageFix" result="shape"/>
<feGaussianBlur stdDeviation="5" result="effect1_foregroundBlur_1931_7430"/>
</filter>
<linearGradient id="paint0_linear_1931_7430" x1="7.36667" y1="7.66822" x2="39.4019" y2="34.4713" gradientUnits="userSpaceOnUse">
<stop stop-color="#60A5FA"/>
<stop offset="0.0001" stop-color="#2DD4BF"/>
<stop offset="1" stop-color="#3B82F6"/>
</linearGradient>
<linearGradient id="paint1_linear_1931_7430" x1="7.36667" y1="7.66822" x2="39.4019" y2="34.4713" gradientUnits="userSpaceOnUse">
<stop stop-color="#60A5FA"/>
<stop offset="0.0001" stop-color="#2DD4BF"/>
<stop offset="1" stop-color="#3B82F6"/>
</linearGradient>
<linearGradient id="paint2_linear_1931_7430" x1="44.842" y1="26.3527" x2="28.8563" y2="50.4855" gradientUnits="userSpaceOnUse">
<stop stop-color="white" stop-opacity="0.48"/>
<stop offset="1" stop-color="white" stop-opacity="0.2"/>
</linearGradient>
<linearGradient id="paint3_linear_1931_7430" x1="36.224" y1="24.9164" x2="36.224" y2="47.7256" gradientUnits="userSpaceOnUse">
<stop stop-color="white" stop-opacity="0"/>
<stop offset="1" stop-color="white"/>
</linearGradient>
<clipPath id="clip0_1931_7430">
<rect width="52" height="52" fill="white"/>
</clipPath>
</defs>
</svg>
