<svg width="52" height="52" viewBox="0 0 52 52" fill="none" xmlns="http://www.w3.org/2000/svg">
<g clip-path="url(#clip0_1931_7454)">
<g filter="url(#filter0_f_1931_7454)">
<path d="M41.2359 8.66669H7.23972C5.9957 8.66669 4.98334 9.67905 4.98334 10.9231V33.3365C4.98334 34.5805 5.9957 35.5928 7.23972 35.5928H41.2359C42.4799 35.5928 43.4922 34.5805 43.4922 33.3365V10.9231C43.4922 9.67905 42.4799 8.66669 41.2359 8.66669Z" fill="url(#paint0_linear_1931_7454)"/>
<path d="M36.2718 41.1586H30.1796V37.8492H18.296V41.1586H12.2038C11.581 41.1586 11.0756 41.664 11.0756 42.2868C11.0756 42.9095 11.581 43.415 12.2038 43.415H36.2718C36.8946 43.415 37.4 42.9095 37.4 42.2868C37.4 41.664 36.8946 41.1586 36.2718 41.1586Z" fill="url(#paint1_linear_1931_7454)"/>
</g>
<path d="M41.2359 8.66669H7.23972C5.9957 8.66669 4.98334 9.67905 4.98334 10.9231V33.3365C4.98334 34.5805 5.9957 35.5928 7.23972 35.5928H41.2359C42.4799 35.5928 43.4922 34.5805 43.4922 33.3365V10.9231C43.4922 9.67905 42.4799 8.66669 41.2359 8.66669Z" fill="url(#paint2_linear_1931_7454)"/>
<path d="M36.2718 41.1586H30.1796V37.8492H18.296V41.1586H12.2038C11.581 41.1586 11.0756 41.664 11.0756 42.2868C11.0756 42.9095 11.581 43.415 12.2038 43.415H36.2718C36.8946 43.415 37.4 42.9095 37.4 42.2868C37.4 41.664 36.8946 41.1586 36.2718 41.1586Z" fill="url(#paint3_linear_1931_7454)"/>
<path d="M40.5678 18.8715L40.4771 18.6202L39.6435 16.3095C39.6435 16.3095 39.6435 16.3094 39.6435 16.3093C39.6435 16.3093 39.6435 16.3093 39.6435 16.3093C39.5991 16.1868 39.4787 16.1 39.3392 16.1H36.8671C36.8005 16.1002 36.7355 16.1207 36.6808 16.159C36.6265 16.197 36.585 16.2506 36.5619 16.3128C36.5618 16.3132 36.5616 16.3137 36.5614 16.3141L35.7834 18.4846L35.7034 18.7075L35.4803 18.7869C35.0846 18.9278 34.7851 19.0548 34.5731 19.1666L34.5715 19.1674C34.3877 19.2636 34.1779 19.3894 33.9413 19.5469L33.7196 19.6945L33.4734 19.5928L31.2323 18.667L31.2312 18.6665C31.1729 18.6423 31.1088 18.6355 31.0467 18.6469C30.9846 18.6583 30.9272 18.6875 30.8813 18.7309L30.8809 18.7313L29.223 20.2971L29.2208 20.2993L29.2207 20.2993C29.1736 20.3432 29.1418 20.401 29.1297 20.4643C29.1177 20.5276 29.1262 20.5931 29.1539 20.6512L29.1546 20.6526L30.1157 22.6836L30.2191 22.9021L30.1121 23.1188C29.9835 23.3793 29.8661 23.6453 29.7604 23.9159C29.6895 24.1079 29.604 24.3847 29.5039 24.7527L29.4439 24.9732L29.2379 25.0722L27.0204 26.1373L27.0194 26.1377C26.9678 26.1624 26.9239 26.2006 26.8924 26.2484C26.861 26.2958 26.8432 26.3509 26.8406 26.4077C26.8406 26.4081 26.8406 26.4084 26.8406 26.4087L26.7581 28.6726C26.7581 28.6729 26.7581 28.6731 26.7581 28.6734C26.756 28.7424 26.7767 28.8103 26.8169 28.8664C26.8574 28.9227 26.9153 28.9642 26.9816 28.9842L26.9826 28.9845L29.0962 29.6281L29.3428 29.7031L29.4247 29.9475C29.5291 30.2591 29.6431 30.5674 29.7665 30.872C29.8712 31.1174 29.9845 31.3589 30.1063 31.5962L30.2171 31.8123L30.1158 32.033L29.1511 34.1349L29.1508 34.1356C29.1241 34.1936 29.1164 34.2586 29.1288 34.3212C29.1412 34.3839 29.1731 34.441 29.2199 34.4844L29.2218 34.4863L30.882 36.0438L30.8822 36.0439C30.9285 36.0874 30.9865 36.1164 31.049 36.1274C31.1116 36.1384 31.176 36.131 31.2344 36.1059L31.2349 36.1057L33.4784 35.1469L33.6951 35.0543L33.9045 35.1624C34.1318 35.2799 34.3631 35.3897 34.598 35.4915C34.8899 35.6097 35.185 35.72 35.483 35.822L35.7055 35.8983L35.7887 36.1183L36.6917 38.508C36.6919 38.5085 36.6921 38.509 36.6923 38.5095C36.7166 38.5715 36.7594 38.6246 36.8148 38.6616C36.8706 38.6989 36.9366 38.7181 37.0038 38.7166L37.0041 38.7165L39.2471 38.6658C39.2471 38.6658 39.2471 38.6658 39.2471 38.6658C39.3125 38.6642 39.3759 38.6431 39.4291 38.6051C39.4819 38.5674 39.5223 38.5148 39.5451 38.454C39.5453 38.4536 39.5455 38.4531 39.5456 38.4526L40.3118 36.3307L40.3903 36.1133L40.6068 36.0323L41.4694 35.7094C41.4697 35.7093 41.4699 35.7092 41.4702 35.7091C41.7778 35.5926 42.0777 35.4567 42.368 35.3022L42.6024 35.1775L42.837 35.3018L44.816 36.3504L44.8171 36.351C44.8761 36.3824 44.9434 36.395 45.0098 36.387C45.0762 36.379 45.1386 36.3508 45.1884 36.3062L45.1888 36.3059L47.1087 34.5913L47.1108 34.5895C47.1595 34.5465 47.1931 34.4889 47.2066 34.4252C47.2201 34.3616 47.2127 34.2953 47.1856 34.2362L47.1846 34.234L46.175 32.0022L46.0832 31.7992L46.1727 31.5952C46.2974 31.3112 46.4089 31.0216 46.507 30.7273C46.5637 30.549 46.62 30.3291 46.6747 30.0651L46.7318 29.7897L46.9968 29.6955L49.0065 28.9811L49.0085 28.9804C49.0666 28.96 49.1175 28.923 49.1548 28.8739C49.1919 28.8251 49.214 28.7664 49.2182 28.7052C49.2183 28.705 49.2183 28.7047 49.2183 28.7044L49.374 26.2565C49.374 26.2565 49.374 26.2565 49.374 26.2564C49.3819 26.1287 49.3082 26.0053 49.1824 25.9517L49.1814 25.9513L47.0595 25.0421L46.8649 24.9587L46.7893 24.7609C46.6446 24.382 46.5266 24.0952 46.4343 23.8953C46.3481 23.7095 46.2321 23.4817 46.0848 23.2103L45.9696 22.9979L46.0644 22.7756L46.9746 20.6425C47.0234 20.5277 46.9997 20.3977 46.9119 20.3067L45.2051 18.542L40.5678 18.8715ZM40.5678 18.8715L40.8271 18.9358M40.5678 18.8715L40.8271 18.9358M40.8271 18.9358C41.1143 19.007 41.355 19.078 41.5517 19.1481L40.8271 18.9358ZM42.6551 19.6249L42.43 19.5203C42.0584 19.3477 41.7671 19.225 41.5518 19.1482L42.6551 19.6249ZM42.6551 19.6249L42.8746 19.5088M42.6551 19.6249L42.8746 19.5088M42.8746 19.5088L44.8158 18.4815L44.8169 18.4809M42.8746 19.5088L44.8169 18.4809M44.8169 18.4809C44.8795 18.4476 44.9512 18.4355 45.0212 18.4465M44.8169 18.4809L45.0212 18.4465M45.0212 18.4465C45.0912 18.4575 45.1556 18.491 45.2049 18.5419L45.0212 18.4465ZM38.0946 23.3882C35.8556 23.3882 34.031 25.1829 34.031 27.4106C34.031 29.638 35.8554 31.4341 38.0946 31.4341C40.3341 31.4341 42.1571 29.6378 42.1571 27.4106C42.1571 25.1831 40.3338 23.3882 38.0946 23.3882Z" fill="url(#paint4_linear_1931_7454)" stroke="url(#paint5_linear_1931_7454)"/>
</g>
<defs>
<filter id="filter0_f_1931_7454" x="-5.01666" y="-1.33331" width="58.5089" height="54.7483" filterUnits="userSpaceOnUse" color-interpolation-filters="sRGB">
<feFlood flood-opacity="0" result="BackgroundImageFix"/>
<feBlend mode="normal" in="SourceGraphic" in2="BackgroundImageFix" result="shape"/>
<feGaussianBlur stdDeviation="5" result="effect1_foregroundBlur_1931_7454"/>
</filter>
<linearGradient id="paint0_linear_1931_7454" x1="4.98334" y1="8.7518" x2="37.513" y2="38.914" gradientUnits="userSpaceOnUse">
<stop stop-color="#60A5FA"/>
<stop offset="0.0001" stop-color="#2DD4BF"/>
<stop offset="1" stop-color="#3B82F6"/>
</linearGradient>
<linearGradient id="paint1_linear_1931_7454" x1="4.98334" y1="8.7518" x2="37.513" y2="38.914" gradientUnits="userSpaceOnUse">
<stop stop-color="#60A5FA"/>
<stop offset="0.0001" stop-color="#2DD4BF"/>
<stop offset="1" stop-color="#3B82F6"/>
</linearGradient>
<linearGradient id="paint2_linear_1931_7454" x1="4.98334" y1="8.7518" x2="37.513" y2="38.914" gradientUnits="userSpaceOnUse">
<stop stop-color="#60A5FA"/>
<stop offset="0.0001" stop-color="#2DD4BF"/>
<stop offset="1" stop-color="#3B82F6"/>
</linearGradient>
<linearGradient id="paint3_linear_1931_7454" x1="4.98334" y1="8.7518" x2="37.513" y2="38.914" gradientUnits="userSpaceOnUse">
<stop stop-color="#60A5FA"/>
<stop offset="0.0001" stop-color="#2DD4BF"/>
<stop offset="1" stop-color="#3B82F6"/>
</linearGradient>
<linearGradient id="paint4_linear_1931_7454" x1="46.9137" y1="17.0871" x2="30.3075" y2="41.9442" gradientUnits="userSpaceOnUse">
<stop stop-color="white" stop-opacity="0.48"/>
<stop offset="1" stop-color="white" stop-opacity="0.2"/>
</linearGradient>
<linearGradient id="paint5_linear_1931_7454" x1="38.0663" y1="15.6" x2="38.0663" y2="39.2166" gradientUnits="userSpaceOnUse">
<stop stop-color="white" stop-opacity="0"/>
<stop offset="1" stop-color="white"/>
</linearGradient>
<clipPath id="clip0_1931_7454">
<rect width="52" height="52" fill="white"/>
</clipPath>
</defs>
</svg>
