<svg width="52" height="52" viewBox="0 0 52 52" fill="none" xmlns="http://www.w3.org/2000/svg">
<g clip-path="url(#clip0_1931_7450)">
<g filter="url(#filter0_f_1931_7450)">
<path fill-rule="evenodd" clip-rule="evenodd" d="M8.01666 11.2667C8.01666 9.83075 9.18072 8.66669 10.6167 8.66669H40.0833C41.5193 8.66669 42.6833 9.83075 42.6833 11.2667V16.4667C42.6833 17.9026 41.5193 19.0667 40.0833 19.0667H10.6167C9.18072 19.0667 8.01666 17.9026 8.01666 16.4667V11.2667ZM34.6667 12.7834C34.6667 12.3047 35.0547 11.9167 35.5333 11.9167H37.7C38.1786 11.9167 38.5667 12.3047 38.5667 12.7834V14.95C38.5667 15.4287 38.1786 15.8167 37.7 15.8167H35.5333C35.0547 15.8167 34.6667 15.4287 34.6667 14.95V12.7834ZM12.35 12.7834C11.8713 12.7834 11.4833 13.1714 11.4833 13.65V14.0834C11.4833 14.562 11.8713 14.95 12.35 14.95H21.45C21.9286 14.95 22.3167 14.562 22.3167 14.0834V13.65C22.3167 13.1714 21.9286 12.7834 21.45 12.7834H12.35ZM8.01666 23.4C8.01666 21.9641 9.18072 20.8 10.6167 20.8H40.0833C41.5193 20.8 42.6833 21.9641 42.6833 23.4V28.6C42.6833 30.036 41.5193 31.2 40.0833 31.2H10.6167C9.18072 31.2 8.01666 30.036 8.01666 28.6V23.4ZM34.6667 24.9167C34.6667 24.438 35.0547 24.05 35.5333 24.05H37.7C38.1786 24.05 38.5667 24.438 38.5667 24.9167V27.0834C38.5667 27.562 38.1786 27.95 37.7 27.95H35.5333C35.0547 27.95 34.6667 27.562 34.6667 27.0834V24.9167ZM12.35 24.9167C11.8713 24.9167 11.4833 25.3047 11.4833 25.7834V26.2167C11.4833 26.6953 11.8713 27.0834 12.35 27.0834H21.45C21.9286 27.0834 22.3167 26.6953 22.3167 26.2167V25.7834C22.3167 25.3047 21.9286 24.9167 21.45 24.9167H12.35ZM10.6167 32.9334C9.18072 32.9334 8.01666 34.0974 8.01666 35.5334V40.7334C8.01666 42.1693 9.18072 43.3334 10.6167 43.3334H40.0833C41.5193 43.3334 42.6833 42.1693 42.6833 40.7334V35.5334C42.6833 34.0974 41.5193 32.9334 40.0833 32.9334H10.6167ZM35.5333 36.1834C35.0547 36.1834 34.6667 36.5714 34.6667 37.05V39.2167C34.6667 39.6953 35.0547 40.0834 35.5333 40.0834H37.7C38.1786 40.0834 38.5667 39.6953 38.5667 39.2167V37.05C38.5667 36.5714 38.1786 36.1834 37.7 36.1834H35.5333ZM11.4833 37.9167C11.4833 37.438 11.8713 37.05 12.35 37.05H21.45C21.9286 37.05 22.3167 37.438 22.3167 37.9167V38.35C22.3167 38.8287 21.9286 39.2167 21.45 39.2167H12.35C11.8713 39.2167 11.4833 38.8287 11.4833 38.35V37.9167Z" fill="url(#paint0_linear_1931_7450)"/>
</g>
<path fill-rule="evenodd" clip-rule="evenodd" d="M8.01666 11.2667C8.01666 9.83075 9.18072 8.66669 10.6167 8.66669H40.0833C41.5193 8.66669 42.6833 9.83075 42.6833 11.2667V16.4667C42.6833 17.9026 41.5193 19.0667 40.0833 19.0667H10.6167C9.18072 19.0667 8.01666 17.9026 8.01666 16.4667V11.2667ZM34.6667 12.7834C34.6667 12.3047 35.0547 11.9167 35.5333 11.9167H37.7C38.1786 11.9167 38.5667 12.3047 38.5667 12.7834V14.95C38.5667 15.4287 38.1786 15.8167 37.7 15.8167H35.5333C35.0547 15.8167 34.6667 15.4287 34.6667 14.95V12.7834ZM12.35 12.7834C11.8713 12.7834 11.4833 13.1714 11.4833 13.65V14.0834C11.4833 14.562 11.8713 14.95 12.35 14.95H21.45C21.9286 14.95 22.3167 14.562 22.3167 14.0834V13.65C22.3167 13.1714 21.9286 12.7834 21.45 12.7834H12.35ZM10.6167 20.8C9.18072 20.8 8.01666 21.9641 8.01666 23.4V28.6C8.01666 30.036 9.18072 31.2 10.6167 31.2H40.0833C41.5193 31.2 42.6833 30.036 42.6833 28.6V23.4C42.6833 21.9641 41.5193 20.8 40.0833 20.8H10.6167ZM12.35 24.9167C11.8713 24.9167 11.4833 25.3047 11.4833 25.7834V26.2167C11.4833 26.6953 11.8713 27.0834 12.35 27.0834H21.45C21.9286 27.0834 22.3167 26.6953 22.3167 26.2167V25.7834C22.3167 25.3047 21.9286 24.9167 21.45 24.9167H12.35ZM10.6167 32.9334C9.18072 32.9334 8.01666 34.0974 8.01666 35.5334V40.7334C8.01666 42.1693 9.18072 43.3334 10.6167 43.3334H40.0833C41.5193 43.3334 42.6833 42.1693 42.6833 40.7334V35.5334C42.6833 34.0974 41.5193 32.9334 40.0833 32.9334H10.6167ZM35.5333 36.1834C35.0547 36.1834 34.6667 36.5714 34.6667 37.05V39.2167C34.6667 39.6953 35.0547 40.0834 35.5333 40.0834H37.7C38.1786 40.0834 38.5667 39.6953 38.5667 39.2167V37.05C38.5667 36.5714 38.1786 36.1834 37.7 36.1834H35.5333ZM11.4833 37.9167C11.4833 37.438 11.8713 37.05 12.35 37.05H21.45C21.9286 37.05 22.3167 37.438 22.3167 37.9167V38.35C22.3167 38.8287 21.9286 39.2167 21.45 39.2167H12.35C11.8713 39.2167 11.4833 38.8287 11.4833 38.35V37.9167Z" fill="url(#paint1_linear_1931_7450)"/>
<path d="M32.2057 14.8842L32.2062 14.8847C33.0839 15.7599 33.6822 16.8759 33.9253 18.0914C34.1683 19.3068 34.0453 20.5671 33.5716 21.7126L33.4308 22.0531L33.7144 22.2884L43.4064 30.3311C44.6698 31.6116 44.6645 33.6665 43.3906 34.9405C42.1154 36.2158 40.0615 36.2182 38.7974 34.9572L30.7395 25.263L30.5045 24.9802L30.1645 25.1204C27.8874 26.0589 25.1845 25.6029 23.3364 23.7545C21.781 22.199 21.2306 20.0414 21.6546 18.0353L25.3547 21.7358L25.7083 22.0894L26.0619 21.7358L30.2618 17.5355L30.6159 17.1813L30.2612 16.8278L26.6035 13.1825C28.573 12.8006 30.682 13.3604 32.2057 14.8842ZM42.5011 34.0569L42.5012 34.057L42.5086 34.0493C43.2763 33.2619 43.2827 31.9954 42.5041 31.2168C41.7171 30.4297 40.4471 30.4218 39.6672 31.2168C38.8723 31.9968 38.8803 33.2668 39.6672 34.0538L39.6672 34.0539L39.6703 34.0569C40.0479 34.4281 40.5562 34.6361 41.0857 34.6361C41.6152 34.6361 42.1235 34.4281 42.5011 34.0569Z" fill="url(#paint2_linear_1931_7450)" stroke="url(#paint3_linear_1931_7450)"/>
</g>
<defs>
<filter id="filter0_f_1931_7450" x="-1.98334" y="-1.33331" width="54.6667" height="54.6667" filterUnits="userSpaceOnUse" color-interpolation-filters="sRGB">
<feFlood flood-opacity="0" result="BackgroundImageFix"/>
<feBlend mode="normal" in="SourceGraphic" in2="BackgroundImageFix" result="shape"/>
<feGaussianBlur stdDeviation="5" result="effect1_foregroundBlur_1931_7450"/>
</filter>
<linearGradient id="paint0_linear_1931_7450" x1="8.01666" y1="8.7516" x2="40.0519" y2="35.5547" gradientUnits="userSpaceOnUse">
<stop stop-color="#60A5FA"/>
<stop offset="0.0001" stop-color="#2DD4BF"/>
<stop offset="1" stop-color="#3B82F6"/>
</linearGradient>
<linearGradient id="paint1_linear_1931_7450" x1="8.01666" y1="8.7516" x2="40.0519" y2="35.5547" gradientUnits="userSpaceOnUse">
<stop stop-color="#60A5FA"/>
<stop offset="0.0001" stop-color="#2DD4BF"/>
<stop offset="1" stop-color="#3B82F6"/>
</linearGradient>
<linearGradient id="paint2_linear_1931_7450" x1="22.5174" y1="15.5547" x2="47.6026" y2="32.3132" gradientUnits="userSpaceOnUse">
<stop stop-color="white" stop-opacity="0.48"/>
<stop offset="1" stop-color="white" stop-opacity="0.2"/>
</linearGradient>
<linearGradient id="paint3_linear_1931_7450" x1="21.0167" y1="24.4833" x2="44.85" y2="24.4833" gradientUnits="userSpaceOnUse">
<stop stop-color="white" stop-opacity="0"/>
<stop offset="1" stop-color="white"/>
</linearGradient>
<clipPath id="clip0_1931_7450">
<rect width="52" height="52" fill="white"/>
</clipPath>
</defs>
</svg>
